<?xml version="1.0" encoding="UTF-8"?>
<svg version="1.1" xmlns="http://www.w3.org/2000/svg" width="500" height="500">
<path d="M0 0 C1.18335938 0.93585938 1.18335938 0.93585938 2.390625 1.890625 C3.421875 2.633125 4.453125 3.375625 5.515625 4.140625 C19.88824272 17.8883463 27.09520478 36.40421092 27.640625 56.015625 C27.60668544 63.25323709 26.15497336 69.88574194 24.390625 76.890625 C18.91174901 75.064333 16.04610543 69.81601259 13.390625 64.890625 C12.92138199 62.0506847 13.00670936 59.63388343 13.22265625 56.76953125 C14.07187099 42.21438562 7.64733087 28.41121898 -1.60546875 17.546875 C-11.66927195 6.78344912 -25.46564482 1.0815696 -40.0390625 -0.34765625 C-56.08438085 -0.83465473 -71.07769136 5.01249712 -82.8046875 15.9609375 C-93.77318199 27.68915455 -98.88346385 42.14175095 -98.77734375 57.99609375 C-98.60192641 61.01898322 -98.1603971 63.91510567 -97.609375 66.890625 C-97.34833984 66.39771973 -97.08730469 65.90481445 -96.81835938 65.39697266 C-82.28620965 38.13328546 -82.28620965 38.13328546 -67.546875 31.515625 C-61.33113372 30.19312686 -56.77143364 30.0415957 -51.28515625 33.53515625 C-48.30000055 35.94972275 -45.93782554 38.85425726 -43.609375 41.890625 C-42.95582031 41.07658203 -42.95582031 41.07658203 -42.2890625 40.24609375 C-38.27521959 35.42426947 -35.06502549 31.7550212 -28.65625 30.51171875 C-20.71702624 29.84059732 -13.7159974 33.78165663 -7.53515625 38.4609375 C-0.98953344 44.5505731 3.26104762 52.69462168 7.390625 60.515625 C10.54626769 66.41457307 14.35676135 71.75466017 19.015625 76.5703125 C20.453125 78.078125 20.453125 78.078125 22.390625 80.890625 C18.74130701 95.63060772 7.37530253 107.32205412 -5.046875 115.328125 C-22.08698605 125.10890473 -41.35978998 129.03098706 -60.609375 123.890625 C-73.080833 119.93437562 -84.17836928 114.01650995 -93.609375 104.890625 C-93.2566198 101.97418408 -92.97885201 100.29908759 -90.98046875 98.08984375 C-90.34238281 97.59097656 -89.70429688 97.09210938 -89.046875 96.578125 C-88.40621094 96.06636719 -87.76554687 95.55460937 -87.10546875 95.02734375 C-86.61175781 94.65222656 -86.11804688 94.27710938 -85.609375 93.890625 C-82.5355099 95.56727869 -79.98500431 97.40900374 -77.421875 99.765625 C-66.67438573 109.14059941 -52.52692307 112.08763781 -38.609375 111.890625 C-23.51799307 110.34363492 -11.15394106 103.60526471 -0.609375 92.890625 C-1.85643632 89.14944105 -2.86283506 88.88587699 -6.296875 87.140625 C-7.14636719 86.69203125 -7.99585938 86.2434375 -8.87109375 85.78125 C-14.58572517 83.92256817 -19.78313042 86.53496685 -25.109375 88.703125 C-25.74746094 88.95126953 -26.38554687 89.19941406 -27.04296875 89.45507812 C-30.27028092 90.75194283 -32.91195983 92.09332746 -35.828125 94.046875 C-39.21315248 96.29088198 -40.97033209 96.64722462 -44.92578125 96.48046875 C-49.70653421 95.42967734 -53.88245323 93.00734079 -58.16796875 90.71875 C-66.00119235 86.47477803 -66.00119235 86.47477803 -74.609375 84.765625 C-83.07872692 87.94163197 -90.37119852 93.42140494 -96.609375 99.890625 C-107.76671765 89.26115663 -112.49309327 73.11873256 -112.90209961 58.04418945 C-113.09329637 37.82690263 -106.16449023 19.95419887 -92.03125 5.2890625 C-67.47717812 -18.86027193 -27.0426408 -20.86146576 0 0 Z M-67.609375 45.890625 C-70.4106195 50.57634307 -71.18255985 55.16959809 -70.296875 60.5390625 C-67.5463215 69.94720572 -60.89340044 75.79812224 -53.609375 81.890625 C-49.44389711 85.75653085 -49.44389711 85.75653085 -47.3984375 87.67578125 C-45.41826815 89.26513595 -45.41826815 89.26513595 -41.609375 88.890625 C-41.279375 87.900625 -40.949375 86.910625 -40.609375 85.890625 C-39.29741718 85.18281931 -37.95856725 84.5245828 -36.609375 83.890625 C-28.37360532 77.92505217 -18.63158704 70.45106565 -16.609375 59.890625 C-15.9981518 53.57465192 -16.9215667 49.13309759 -20.609375 43.890625 C-23.47012662 41.41646144 -25.1750203 40.9479926 -28.921875 40.453125 C-32.33753939 40.85837332 -33.72580454 41.34680335 -36.609375 42.953125 C-40.64997761 45.14859694 -43.08902607 45.12344743 -47.609375 43.890625 C-48.764375 43.375 -49.919375 42.859375 -51.109375 42.328125 C-57.85143366 39.55906519 -62.92219781 40.05643466 -67.609375 45.890625 Z " fill="#EE2188" transform="translate(292.609375,194.109375)"/>
<path d="M0 0 C11.35920994 6.19069743 16.95759208 15.85552586 22.875 27.0625 C26.03064269 32.96144807 29.84113635 38.30153517 34.5 43.1171875 C35.9375 44.625 35.9375 44.625 37.875 47.4375 C34.22568201 62.17748272 22.85967753 73.86892912 10.4375 81.875 C-6.60261105 91.65577973 -25.87541498 95.57786206 -45.125 90.4375 C-57.596458 86.48125062 -68.69399428 80.56338495 -78.125 71.4375 C-77.7722448 68.52105908 -77.49447701 66.84596259 -75.49609375 64.63671875 C-74.53896484 63.88841797 -74.53896484 63.88841797 -73.5625 63.125 C-72.92183594 62.61324219 -72.28117188 62.10148437 -71.62109375 61.57421875 C-71.12738281 61.19910156 -70.63367188 60.82398438 -70.125 60.4375 C-67.0511349 62.11415369 -64.50062931 63.95587874 -61.9375 66.3125 C-51.19001073 75.68747441 -37.04254807 78.63451281 -23.125 78.4375 C-8.03361807 76.89050992 4.33043394 70.15213971 14.875 59.4375 C13.62793868 55.69631605 12.62153994 55.43275199 9.1875 53.6875 C8.33800781 53.23890625 7.48851562 52.7903125 6.61328125 52.328125 C0.89864983 50.46944317 -4.29875542 53.08184185 -9.625 55.25 C-10.26308594 55.49814453 -10.90117187 55.74628906 -11.55859375 56.00195312 C-14.80852836 57.30790844 -17.42190865 58.64036356 -20.34375 60.63671875 C-23.125 62.4375 -23.125 62.4375 -27.125 62.4375 C-27.785 60.4575 -28.445 58.4775 -29.125 56.4375 C-24.68530147 52.48120704 -20.17152963 48.68098642 -15.5 45 C-8.72116841 39.47163249 -2.91452532 33.55758287 -1.91015625 24.5 C-1.68243749 19.69057975 -2.70208173 16.67760696 -5.125 12.4375 C-5.125 11.7775 -5.125 11.1175 -5.125 10.4375 C-9.28851207 8.41882748 -12.51743396 7.96893396 -17.125 8.4375 C-19.24300941 9.36538984 -21.23451234 10.42894261 -23.2578125 11.546875 C-25.62566373 12.67631031 -27.53906575 12.76074178 -30.125 12.4375 C-27.50671471 6.70037488 -23.41288006 2.02906874 -18.25 -1.5625 C-11.36842068 -3.76460538 -6.55642566 -3.06512899 0 0 Z " fill="#5AA9E1" transform="translate(277.125,227.5625)"/>
<path d="M0 0 C0.76183594 -0.00515625 1.52367187 -0.0103125 2.30859375 -0.015625 C4.77554371 0.2751074 6.36939226 1.13470162 8.5625 2.25 C9.90496312 1.60191436 11.23682801 0.93177416 12.5625 0.25 C17.53544029 -0.20208548 20.61579969 0.09263975 24.5625 3.25 C27.13323939 6.67765252 26.99287452 10.08971296 26.5625 14.25 C22.34158614 22.3541546 14.88369045 28.05861041 7.5625 33.25 C-9.60416667 17.88888889 -9.60416667 17.88888889 -11.5625 11.6875 C-11.40568232 7.37501383 -10.180837 5.52676363 -7.4375 2.25 C-4.32763793 0.17675862 -3.54641613 -0.02392186 0 0 Z " fill="#FFC266" transform="translate(241.4375,242.75)"/>
<path d="M0 0 C0.71671875 0.16757813 1.4334375 0.33515625 2.171875 0.5078125 C3.12653283 2.67748939 3.31588712 4.07110043 2.5703125 6.33203125 C1.81317115 8.0762868 0.99578302 9.79408381 0.171875 11.5078125 C2.481875 12.8278125 4.791875 14.1478125 7.171875 15.5078125 C8.821875 13.1978125 10.471875 10.8878125 12.171875 8.5078125 C14.646875 9.0028125 14.646875 9.0028125 17.171875 9.5078125 C16.69029493 15.30529567 14.30314728 19.46966034 11.421875 24.3828125 C10.99132812 25.1665625 10.56078125 25.9503125 10.1171875 26.7578125 C8.9091461 28.8339076 7.77017512 30.71411258 6.171875 32.5078125 C3.34375 33.015625 3.34375 33.015625 1.171875 32.5078125 C0.97565259 28.28903058 1.36957332 25.33770356 3.171875 21.5078125 C-0.51376584 19.05201553 -0.51376584 19.05201553 -4.828125 18.5078125 C-7.03980725 21.45018032 -7.03980725 21.45018032 -8.828125 24.5078125 C-10.478125 24.1778125 -12.128125 23.8478125 -13.828125 23.5078125 C-13.34654493 17.71032933 -10.95939728 13.54596466 -8.078125 8.6328125 C-7.43230469 7.4571875 -7.43230469 7.4571875 -6.7734375 6.2578125 C-3.49756251 0.62801537 -3.49756251 0.62801537 0 0 Z " fill="#F04399" transform="translate(295.828125,147.4921875)"/>
<path d="M0 0 C0.99 0.33 1.98 0.66 3 1 C4.32 1 5.64 1 7 1 C7.468744 19.07268539 7.468744 19.07268539 5 25 C3.02538223 26.89023239 1.70061437 27.87273997 -1 28.36328125 C-4.79940792 28.26681191 -7.72982823 28.18011451 -11 26 C-10.67 24.68 -10.34 23.36 -10 22 C-7.03 21.67 -4.06 21.34 -1 21 C-2.15645826 19.62624631 -2.15645826 19.62624631 -5.3125 19.75 C-9 19 -9 19 -11.4375 16.9375 C-13.45187726 13.15047075 -13.86650665 10.2051058 -13 6 C-9.27650406 0.16652302 -6.73217643 -0.23621672 0 0 Z M-5 6 C-5.66 6.66 -6.32 7.32 -7 8 C-6.67958603 10.60280568 -6.67958603 10.60280568 -6 13 C-4.16299211 13.77242269 -4.16299211 13.77242269 -2 14 C-0.22809091 12.64555699 -0.22809091 12.64555699 1 11 C0.34 9.35 -0.32 7.7 -1 6 C-2.32 6 -3.64 6 -5 6 Z " fill="#F03E97" transform="translate(259,145)"/>
<path d="M0 0 C5.30567705 -0.15993522 10.11516787 0.40188702 15.3125 1.4375 C16.02728516 1.57220703 16.74207031 1.70691406 17.47851562 1.84570312 C22.71488575 2.85744288 22.71488575 2.85744288 25 4 C25 5.65 25 7.3 25 9 C21.01803543 10.05404945 18.01804691 9.84098656 14 9 C13.67 12.3 13.34 15.6 13 19 C15.64 19.33 18.28 19.66 21 20 C21.38218767 21.65614657 21.71395102 23.32457024 22 25 C21.67 25.33 21.34 25.66 21 26 C12.80730832 25.93746037 4.89820535 23.99652568 -3 22 C-3.38218767 20.34385343 -3.71395102 18.67542976 -4 17 C-3.67 16.67 -3.34 16.34 -3 16 C-1.30858344 16.08963062 0.37959602 16.24577676 2.0625 16.4375 C2.98160156 16.53933594 3.90070313 16.64117187 4.84765625 16.74609375 C5.55792969 16.82988281 6.26820313 16.91367188 7 17 C7.33 14.03 7.66 11.06 8 8 C5.03 7.01 2.06 6.02 -1 5 C-0.67 3.35 -0.34 1.7 0 0 Z " fill="#F03D96" transform="translate(146,216)"/>
<path d="M0 0 C2.44744336 2.56981553 3.82007263 4.41477783 4.2265625 7.99609375 C4.07211754 11.13845472 3.6852936 13.21653762 1.58203125 15.62109375 C-0.0625 17 -0.0625 17 -3 19 C-2.34 19.66 -1.68 20.32 -1 21 C-0.875 23.625 -0.875 23.625 -1 26 C-2.32 26.33 -3.64 26.66 -5 27 C-8.94206289 22.67773815 -12.8509802 18.32436931 -16.5 13.75 C-16.9846875 13.14671875 -17.469375 12.5434375 -17.96875 11.921875 C-19.26899379 9.4986934 -19.18684753 7.70928919 -19 5 C-17.68 5 -16.36 5 -15 5 C-14.979375 4.401875 -14.95875 3.80375 -14.9375 3.1875 C-14 1 -14 1 -10.875 -0.875 C-6.7341431 -2.41400431 -4.02712962 -1.89958944 0 0 Z M-10 6 C-10.2500773 8.45809998 -10.2500773 8.45809998 -10 11 C-9.34 11.66 -8.68 12.32 -8 13 C-5.94285168 12.98617135 -5.94285168 12.98617135 -4 12 C-2.71563266 10.0162233 -2.71563266 10.0162233 -2 8 C-2.66 7.01 -3.32 6.02 -4 5 C-7.28912144 4.5085887 -7.28912144 4.5085887 -10 6 Z " fill="#F03C96" transform="translate(201,165)"/>
<path d="M0 0 C3.90266941 2.4572363 5.68522654 3.80835763 6.875 8.3125 C6.91625 9.199375 6.9575 10.08625 7 11 C9.31 11.33 11.62 11.66 14 12 C14.625 13.875 14.625 13.875 15 16 C12.77310135 18.22689865 12.07551844 18.36203845 9.078125 18.8515625 C8.29953125 18.98046875 7.5209375 19.109375 6.71875 19.2421875 C5.9040625 19.36851562 5.089375 19.49484375 4.25 19.625 C3.45078125 19.7590625 2.6515625 19.893125 1.828125 20.03125 C-2.49362971 20.72784862 -6.60666674 21.15589247 -11 21 C-14.53605016 9.21316614 -14.53605016 9.21316614 -12.8125 5.3125 C-8.99793686 0.44564358 -6.31562869 -0.8711212 0 0 Z M-5 6 C-6.71711243 8.44496043 -6.71711243 8.44496043 -8 11 C-6.8354799 12.66621425 -6.8354799 12.66621425 -5 14 C-2.34533951 13.76956136 -2.34533951 13.76956136 0 13 C0.77242269 11.16299211 0.77242269 11.16299211 1 9 C-0.16666667 7.16666667 -0.16666667 7.16666667 -2 6 C-2.99 6 -3.98 6 -5 6 Z " fill="#F03B96" transform="translate(344,221)"/>
<path d="M0 0 C2.4375 2.375 2.4375 2.375 4 5 C4 5.99 4 6.98 4 8 C5.32 8.33 6.64 8.66 8 9 C7.44976705 12.73665662 6.05497256 14.18446617 3.1875 16.5625 C2.50042969 17.14128906 1.81335938 17.72007812 1.10546875 18.31640625 C0.41066406 18.87199219 -0.28414063 19.42757812 -1 20 C-1.68449219 20.58652344 -2.36898438 21.17304688 -3.07421875 21.77734375 C-3.70972656 22.18082031 -4.34523438 22.58429688 -5 23 C-5.99 22.67 -6.98 22.34 -8 22 C-8.33 21.01 -8.66 20.02 -9 19 C-9.804375 18.525625 -10.60875 18.05125 -11.4375 17.5625 C-14.26666117 15.83740172 -15.12161803 15.1621751 -16 12 C-15.91956305 7.57596799 -15.46712594 5.56546824 -12.625 2.125 C-8.2727089 -1.39828327 -5.33511148 -1.31037826 0 0 Z M-6 5 C-6.99 5.66 -7.98 6.32 -9 7 C-9.25030977 9.58380177 -9.25030977 9.58380177 -9 12 C-6.525 12.99 -6.525 12.99 -4 14 C-2.35444301 12.77190909 -2.35444301 12.77190909 -1 11 C-0.92357291 8.88850355 -0.92357291 8.88850355 -2 7 C-3.9837767 5.71563266 -3.9837767 5.71563266 -6 5 Z " fill="#F03F98" transform="translate(323,175)"/>
<path d="M0 0 C2 2 2 2 2 5 C3.32 5 4.64 5 6 5 C6.97745382 8.73209641 7.15479268 10.59753904 5.75 14.25 C4 17 4 17 1 19 C-3.70547252 19.8371159 -7.02671316 19.6691347 -11 16.9375 C-13.39441358 13.42070506 -14 11.24773336 -14 7 C-12.69065665 3.79938293 -11.36508872 2.29601788 -8.6875 0.125 C-5.31575291 -1.28642902 -3.47692963 -1.00444634 0 0 Z M-6 5 C-6.66 5.66 -7.32 6.32 -8 7 C-7.6814823 9.10820797 -7.6814823 9.10820797 -7 11 C-6.01 9.02 -5.02 7.04 -4 5 C-4.66 5 -5.32 5 -6 5 Z M1 5 C-0.32 7.64 -1.64 10.28 -3 13 C-1.68 12.34 -0.36 11.68 1 11 C1.81584568 7.94091587 1.81584568 7.94091587 2 5 C1.67 5 1.34 5 1 5 Z " fill="#F0439A" transform="translate(173,194)"/>
<path d="M0 0 C0.51046875 0.23589844 1.0209375 0.47179687 1.546875 0.71484375 C1.65 1.29234375 1.753125 1.86984375 1.859375 2.46484375 C2.40739509 4.79928045 2.40739509 4.79928045 4.109375 6.52734375 C6.21759114 9.73549875 6.00858646 11.95519329 5.546875 15.71484375 C2.64447295 21.38772048 -2.75206323 22.76734364 -8.453125 24.71484375 C-9.443125 23.72484375 -10.433125 22.73484375 -11.453125 21.71484375 C-10.05657203 18.21611104 -8.74052016 17.00592544 -5.328125 15.46484375 C-4.60367187 15.1296875 -3.87921875 14.79453125 -3.1328125 14.44921875 C-2.30136719 14.08570313 -2.30136719 14.08570313 -1.453125 13.71484375 C-1.783125 12.39484375 -2.113125 11.07484375 -2.453125 9.71484375 C-6.66716062 10.27539025 -6.66716062 10.27539025 -10.578125 11.83984375 C-12.93706988 12.94068469 -14.05316952 12.57197071 -16.453125 11.71484375 C-16.453125 10.06484375 -16.453125 8.41484375 -16.453125 6.71484375 C-14.21005472 5.51234217 -11.9602459 4.32792755 -9.703125 3.15234375 C-8.75179688 2.63897461 -8.75179688 2.63897461 -7.78125 2.11523438 C-3.00217062 -0.34897843 -3.00217062 -0.34897843 0 0 Z " fill="#F0449A" transform="translate(337.453125,194.28515625)"/>
<path d="M0 0 C3.64293484 2.02385269 4.77351994 3.42840746 6.3125 7.3125 C6.99496196 10.9729778 7.15158808 14.28609214 7 18 C5.35 18 3.7 18 2 18 C1.79503906 17.37351563 1.59007812 16.74703125 1.37890625 16.1015625 C1.10949219 15.28429687 0.84007812 14.46703125 0.5625 13.625 C0.29566406 12.81289062 0.02882812 12.00078125 -0.24609375 11.1640625 C-0.95179729 8.98968201 -0.95179729 8.98968201 -2 7 C-3.32 7 -4.64 7 -6 7 C-6 11.62 -6 16.24 -6 21 C-7.65 21 -9.3 21 -11 21 C-15.72169811 7.50943396 -15.72169811 7.50943396 -14 2 C-13.21625 1.855625 -12.4325 1.71125 -11.625 1.5625 C-3.10526316 -0.26315789 -3.10526316 -0.26315789 0 0 Z " fill="#F03E97" transform="translate(234,147)"/>
<path d="M0 0 C5.09296307 0.43738693 7.41575171 1.78133803 11.0625 5.3125 C14.2710622 8.37913527 17.49683041 11.27114953 21 14 C20.67 15.65 20.34 17.3 20 19 C15.36382379 18.50446667 12.99723179 16.6886357 9.5 13.6875 C8.5821875 12.90761719 7.664375 12.12773437 6.71875 11.32421875 C5.8215625 10.55722656 4.924375 9.79023438 4 9 C2.33846694 7.66027486 0.67344761 6.32481269 -1 5 C-0.67 3.35 -0.34 1.7 0 0 Z " fill="#F1479C" transform="translate(167,176)"/>
<path d="M0 0 C0.66 0 1.32 0 2 0 C2.09498779 0.5983667 2.18997559 1.1967334 2.2878418 1.81323242 C4.16043931 13.38555163 6.01896037 24.31182167 11 35 C11.45246094 36.010625 11.90492188 37.02125 12.37109375 38.0625 C15.79343813 45.33382248 20.08189177 51.65888583 25 58 C23.515 58.495 23.515 58.495 22 59 C9.61857961 44.12509911 -0.32975752 24.40205682 -0.0625 4.625 C-0.05347656 3.75101563 -0.04445312 2.87703125 -0.03515625 1.9765625 C-0.02355469 1.32429687 -0.01195312 0.67203125 0 0 Z " fill="#F57BB8" transform="translate(154,251)"/>
<path d="M0 0 C1.2065625 0.0309375 1.2065625 0.0309375 2.4375 0.0625 C2.685 0.92875 2.9325 1.795 3.1875 2.6875 C4.51348995 6.26767287 6.31058965 8.90436039 8.4375 12.0625 C10.48613309 16.23293164 11.86260329 19.38636378 11.4375 24.0625 C10.1175 24.3925 8.7975 24.7225 7.4375 25.0625 C-0.73083564 12.34185083 -0.73083564 12.34185083 -0.25 8.6875 C-0.023125 8.15125 0.20375 7.615 0.4375 7.0625 C-0.5525 6.7325 -1.5425 6.4025 -2.5625 6.0625 C-2.94468767 4.40635343 -3.27645102 2.73792976 -3.5625 1.0625 C-2.5625 0.0625 -2.5625 0.0625 0 0 Z " fill="#F03994" transform="translate(205.5625,147.9375)"/>
<path d="M0 0 C0.66 0 1.32 0 2 0 C2.15855469 1.12535156 2.31710938 2.25070313 2.48046875 3.41015625 C5.40018532 23.07029944 11.29639882 39.8679948 24.53125 55.01171875 C26 57 26 57 26 60 C17.70672901 57.23557634 11.59075571 43.51308505 7.79296875 35.95703125 C3.22562758 26.29655951 -0.20751075 15.35579551 -0.0625 4.625 C-0.05347656 3.75101563 -0.04445312 2.87703125 -0.03515625 1.9765625 C-0.02355469 1.32429687 -0.01195312 0.67203125 0 0 Z " fill="#F476B5" transform="translate(158,251)"/>
<path d="M0 0 C0.66 0 1.32 0 2 0 C3.24386927 19.59094096 -5.06179666 38.33603991 -16.82421875 53.58203125 C-19.03731405 56.0414675 -21.35860927 58.01548753 -24 60 C-24 56.18358027 -22.97443044 55.51881945 -20.5 52.6875 C-7.68876743 37.04192394 -2.77627426 19.70477587 0 0 Z " fill="#F36BAF" transform="translate(340,251)"/>
<path d="M0 0 C0.66 0 1.32 0 2 0 C1.37776626 20.19148486 -4.9308949 41.83728799 -19 57 C-21.234375 58.28515625 -21.234375 58.28515625 -23 59 C-21.96721512 55.69508839 -20.53300595 53.33223012 -18.375 50.6875 C-6.99754396 35.90796151 -2.85179316 18.0397522 0 0 Z " fill="#F478B6" transform="translate(344,251)"/>
<path d="M0 0 C3.0625 0.1875 3.0625 0.1875 5.0625 2.1875 C5.1875 4.8125 5.1875 4.8125 5.0625 7.1875 C3.0825 8.1775 3.0825 8.1775 1.0625 9.1875 C1.0625 10.1775 1.0625 11.1675 1.0625 12.1875 C-0.2575 11.8575 -1.5775 11.5275 -2.9375 11.1875 C-3.13156478 9.54242782 -3.31757935 7.89640406 -3.5 6.25 C-3.60441406 5.33347656 -3.70882813 4.41695313 -3.81640625 3.47265625 C-3.85636719 2.71855469 -3.89632813 1.96445312 -3.9375 1.1875 C-2.9375 0.1875 -2.9375 0.1875 0 0 Z M-0.9375 4.1875 C-0.2775 4.8475 0.3825 5.5075 1.0625 6.1875 C1.3925 5.5275 1.7225 4.8675 2.0625 4.1875 C1.0725 4.1875 0.0825 4.1875 -0.9375 4.1875 Z " fill="#96C9EC" transform="translate(269.9375,329.8125)"/>
<path d="M0 0 C1.77783897 4.39230803 2.45844257 7.41632334 1 12 C-1.0625 13.375 -1.0625 13.375 -3 14 C-2.67 12.02 -2.34 10.04 -2 8 C-4.475 9.485 -4.475 9.485 -7 11 C-8 8 -8 8 -7.29296875 6.2109375 C-6.74576172 5.30214844 -6.74576172 5.30214844 -6.1875 4.375 C-5.83042969 3.76398438 -5.47335938 3.15296875 -5.10546875 2.5234375 C-3.59239273 0.43827973 -2.56620009 0 0 0 Z " fill="#97C9EC" transform="translate(201,316)"/>
<path d="M0 0 C3.125 0.75 3.125 0.75 6 2 C6.33 2.66 6.66 3.32 7 4 C6.06553465 6.03144641 5.06775224 8.03533587 4 10 C-1.875 9.125 -1.875 9.125 -3 8 C-3.25 5.0625 -3.25 5.0625 -3 2 C-2.01 1.34 -1.02 0.68 0 0 Z M0 4 C0 4.66 0 5.32 0 6 C0.66 6 1.32 6 2 6 C2 5.34 2 4.68 2 4 C1.34 4 0.68 4 0 4 Z " fill="#99CAEC" transform="translate(209,326)"/>
<path d="M0 0 C0.66 0 1.32 0 2 0 C2.33 0.66 2.66 1.32 3 2 C4.32 1.34 5.64 0.68 7 0 C7.91922387 2.50389814 8.15108861 3.62193352 7.14453125 6.140625 C6.70496094 6.83671875 6.26539063 7.5328125 5.8125 8.25 C5.38582031 8.95640625 4.95914063 9.6628125 4.51953125 10.390625 C4.01808594 10.92171875 3.51664063 11.4528125 3 12 C1.68 12 0.36 12 -1 12 C-0.67 11.01 -0.34 10.02 0 9 C0.66 9 1.32 9 2 9 C1.484375 8.071875 0.96875 7.14375 0.4375 6.1875 C-1 3 -1 3 0 0 Z " fill="#97C9EC" transform="translate(247,335)"/>
<path d="M0 0 C2 3 2 3 2 6 C0.68 5.67 -0.64 5.34 -2 5 C-2 4.34 -2 3.68 -2 3 C-2.66 3 -3.32 3 -4 3 C-3.34 4.98 -2.68 6.96 -2 9 C-4.88575819 8.60196439 -5.82189513 8.20990931 -7.75 5.9375 C-8.1625 5.298125 -8.575 4.65875 -9 4 C-6.80512458 -0.86008129 -5.18904359 -1.55671308 0 0 Z " fill="#8EC4EA" transform="translate(306,319)"/>
<path d="M0 0 C3 0.125 3 0.125 4 1.125 C4.04080783 3.12458364 4.04254356 5.12545254 4 7.125 C1.75 8.3125 1.75 8.3125 -1 9.125 C-3.3125 7.75 -3.3125 7.75 -5 6.125 C-3.93003229 0.16375135 -3.93003229 0.16375135 0 0 Z M0 3.125 C-0.33 3.785 -0.66 4.445 -1 5.125 C-0.34 5.125 0.32 5.125 1 5.125 C0.67 4.465 0.34 3.805 0 3.125 Z " fill="#A0CEEE" transform="translate(284,328.875)"/>
<path d="M0 0 C2.4375 1.375 2.4375 1.375 3.25 4 C3.311875 4.78375 3.37375 5.5675 3.4375 6.375 C2.4475 6.375 1.4575 6.375 0.4375 6.375 C0.4375 7.365 0.4375 8.355 0.4375 9.375 C-4.4375 8.5 -4.4375 8.5 -5.5625 7.375 C-5.25 3.875 -5.25 3.875 -4.5625 0.375 C-2.5625 -0.625 -2.5625 -0.625 0 0 Z " fill="#89C2E9" transform="translate(189.5625,311.625)"/>
<path d="M0 0 C0.66 0.99 1.32 1.98 2 3 C0.63587793 5.07043417 -0.74051527 7.13074144 -2.125 9.1875 C-2.50398438 9.76564453 -2.88296875 10.34378906 -3.2734375 10.93945312 C-6.06771259 15.06100889 -9.05184117 17.9616343 -13 21 C-13 17.11951289 -11.7936793 16.2339625 -9.3125 13.3125 C-5.78703207 9.04812405 -2.81835288 4.75597048 0 0 Z " fill="#F477B6" transform="translate(329,290)"/>
<path d="M0 0 C1.2065625 0.0309375 1.2065625 0.0309375 2.4375 0.0625 C2.72625 0.97 3.015 1.8775 3.3125 2.8125 C4.20281776 5.38452908 5.15244413 7.67596766 6.4375 10.0625 C5.1175 9.7325 3.7975 9.4025 2.4375 9.0625 C1.7775 10.3825 1.1175 11.7025 0.4375 13.0625 C0.05531233 11.40635343 -0.27645102 9.73792976 -0.5625 8.0625 C-0.2325 7.7325 0.0975 7.4025 0.4375 7.0625 C-0.5525 6.7325 -1.5425 6.4025 -2.5625 6.0625 C-2.94468767 4.40635343 -3.27645102 2.73792976 -3.5625 1.0625 C-2.5625 0.0625 -2.5625 0.0625 0 0 Z " fill="#F258A5" transform="translate(205.5625,147.9375)"/>
<path d="M0 0 C2.64 0 5.28 0 8 0 C7.814375 0.7425 7.62875 1.485 7.4375 2.25 C7.00796892 4.94990963 7.14877026 6.44631077 8 9 C5.07120629 8.37240135 2.63904371 7.41377341 0 6 C0 4.02 0 2.04 0 0 Z " fill="#A3CFEE" transform="translate(307,310)"/>
<path d="M0 0 C0.66 0.99 1.32 1.98 2 3 C0.56717148 5.27390187 -0.87100533 7.54410141 -2.3125 9.8125 C-2.71662109 10.45509766 -3.12074219 11.09769531 -3.53710938 11.75976562 C-3.93349609 12.38173828 -4.32988281 13.00371094 -4.73828125 13.64453125 C-5.09962158 14.21534424 -5.46096191 14.78615723 -5.83325195 15.37426758 C-7.09226416 17.12855974 -8.36997109 18.58240862 -10 20 C-10.66 20 -11.32 20 -12 20 C-10.64443226 15.66218323 -8.27328099 12.60538187 -5.53125 9.0703125 C-3.39537331 6.18252004 -1.70944237 3.1558936 0 0 Z " fill="#F475B4" transform="translate(333,290)"/>
<path d="M0 0 C0.66 0 1.32 0 2 0 C2.33965474 2.18652739 2.67142477 4.37428025 3 6.5625 C3.185625 7.78066406 3.37125 8.99882812 3.5625 10.25390625 C3.98555077 13.87627848 4.07501425 17.35712046 4 21 C3.34 20.67 2.68 20.34 2 20 C-0.12822089 13.49710284 -0.25939145 6.77299898 0 0 Z " fill="#F46FB1" transform="translate(158,251)"/>
<path d="M0 0 C3.98103298 4.77723958 7.46719209 9.88933687 11 15 C10.01 15.33 9.02 15.66 8 16 C6.65216541 14.28211261 5.32220557 12.5501903 4 10.8125 C3.2575 9.84957031 2.515 8.88664062 1.75 7.89453125 C-0.07943499 4.86861311 -0.40394708 3.45248521 0 0 Z " fill="#F586BD" transform="translate(168,294)"/>
<path d="M0 0 C1.32 1.32 2.64 2.64 4 4 C3.34 4 2.68 4 2 4 C1.67 6.31 1.34 8.62 1 11 C-0.32 11.33 -1.64 11.66 -3 12 C-2.69230293 10.18667846 -2.37870936 8.37435655 -2.0625 6.5625 C-1.80146484 5.04849609 -1.80146484 5.04849609 -1.53515625 3.50390625 C-1 1 -1 1 0 0 Z " fill="#A7D1EF" transform="translate(231,330)"/>
<path d="M0 0 C0.99 0.33 1.98 0.66 3 1 C3.6875 3.0625 3.6875 3.0625 4 5 C3.34 5 2.68 5 2 5 C2 6.65 2 8.3 2 10 C1.01 10.33 0.02 10.66 -1 11 C-2.67357513 5.62694301 -2.67357513 5.62694301 -3 3 C-1.625 1 -1.625 1 0 0 Z " fill="#88C1E9" transform="translate(239,333)"/>
<path d="M0 0 C0.99 0.33 1.98 0.66 3 1 C3 2.65 3 4.3 3 6 C1.02 6.99 1.02 6.99 -1 8 C-1 8.99 -1 9.98 -1 11 C-1.99 11 -2.98 11 -4 11 C-4 9.35 -4 7.7 -4 6 C-3.01 6 -2.02 6 -1 6 C-0.67 4.02 -0.34 2.04 0 0 Z " fill="#81BEE8" transform="translate(272,331)"/>
<path d="M0 0 C3.57335247 1.19111749 4.41716762 2.43356308 6.6875 5.375 C7.31011719 6.16648437 7.93273437 6.95796875 8.57421875 7.7734375 C10 10 10 10 10 13 C6.42664753 11.80888251 5.58283238 10.56643692 3.3125 7.625 C2.68988281 6.83351563 2.06726563 6.04203125 1.42578125 5.2265625 C0 3 0 3 0 0 Z " fill="#F582BB" transform="translate(174,298)"/>
<path d="M0 0 C2.475 0.495 2.475 0.495 5 1 C5.66 3.97 6.32 6.94 7 10 C6.01 10 5.02 10 4 10 C0 3.375 0 3.375 0 0 Z " fill="#9DCCED" transform="translate(289,322)"/>
<path d="M0 0 C2.31 0.33 4.62 0.66 7 1 C6.67 1.99 6.34 2.98 6 4 C5.01 4.33 4.02 4.66 3 5 C2.67 5.99 2.34 6.98 2 8 C1.01 8 0.02 8 -1 8 C-0.67 5.36 -0.34 2.72 0 0 Z " fill="#8DC4EA" transform="translate(219,331)"/>
<path d="M0 0 C0.66 0 1.32 0 2 0 C1.53411505 5.70709064 0.06242216 9.15939723 -3 14 C-4.37095624 10.30962722 -3.60010967 8.29116165 -2.0625 4.75 C-1.68222656 3.85796875 -1.30195313 2.9659375 -0.91015625 2.046875 C-0.60980469 1.37140625 -0.30945313 0.6959375 0 0 Z " fill="#F362AA" transform="translate(338,278)"/>
<path d="M0 0 C0.66 0.66 1.32 1.32 2 2 C1.64638402 6.5970078 0.58012426 10.68099369 -1 15 C-2.71056541 12.41569255 -3.05220752 11.31678461 -2.5390625 8.203125 C-2.23742187 7.22859375 -1.93578125 6.2540625 -1.625 5.25 C-1.32851563 4.26515625 -1.03203125 3.2803125 -0.7265625 2.265625 C-0.48679687 1.51796875 -0.24703125 0.7703125 0 0 Z " fill="#F57CB8" transform="translate(338,265)"/>
<path d="M0 0 C0.66 0.33 1.32 0.66 2 1 C-1.96 4.96 -5.92 8.92 -10 13 C-10.66 12.67 -11.32 12.34 -12 12 C-8.27653164 7.57905197 -4.70478962 3.42166518 0 0 Z " fill="#F25CA7" transform="translate(207,194)"/>
<path d="M0 0 C4 0 4 0 7 1 C6.34 1 5.68 1 5 1 C5.66 2.98 6.32 4.96 7 7 C4.20171644 6.61402985 3.1794116 6.19863427 1.25 4.0625 C0 2 0 2 0 0 Z " fill="#A2CEEE" transform="translate(297,321)"/>
<path d="M0 0 C0.66 0.33 1.32 0.66 2 1 C-1.63 4.63 -5.26 8.26 -9 12 C-9 7.8407692 -6.75316432 5.85455565 -4 3 C-1.6875 1.125 -1.6875 1.125 0 0 Z " fill="#F361AA" transform="translate(217,230)"/>
<path d="M0 0 C2.4375 1.375 2.4375 1.375 3.25 4 C3.311875 4.78375 3.37375 5.5675 3.4375 6.375 C1.4575 5.715 -0.5225 5.055 -2.5625 4.375 C-2.2325 3.715 -1.9025 3.055 -1.5625 2.375 C-2.5525 2.375 -3.5425 2.375 -4.5625 2.375 C-4.5625 1.715 -4.5625 1.055 -4.5625 0.375 C-2.5625 -0.625 -2.5625 -0.625 0 0 Z " fill="#B2D7F1" transform="translate(189.5625,311.625)"/>
<path d="M0 0 C0.66 0.33 1.32 0.66 2 1 C-1.3 4.3 -4.6 7.6 -8 11 C-8 6.67750434 -5.85084926 5.11604454 -3 2 C-2.01 1.34 -1.02 0.68 0 0 Z " fill="#94C7EB" transform="translate(259,226)"/>
<path d="M0 0 C3.375 0.25 3.375 0.25 7 1 C8.4375 3.0625 8.4375 3.0625 9 5 C7.68 4.67 6.36 4.34 5 4 C4.34 5.32 3.68 6.64 3 8 C2.61781233 6.34385343 2.28604898 4.67542976 2 3 C2.33 2.67 2.66 2.34 3 2 C2.01 1.34 1.02 0.68 0 0 Z " fill="#F794C5" transform="translate(203,153)"/>
<path d="M0 0 C0.99 0.33 1.98 0.66 3 1 C2.04882866 2.1725131 1.08882991 3.33787015 0.125 4.5 C-0.40867187 5.1496875 -0.94234375 5.799375 -1.4921875 6.46875 C-1.98976563 6.9740625 -2.48734375 7.479375 -3 8 C-3.66 8 -4.32 8 -5 8 C-3.8141763 4.62496331 -2.72426311 2.35277269 0 0 Z " fill="#F687BE" transform="translate(326,302)"/>
<path d="M0 0 C3 1 3 1 4.1875 2.6875 C5.19313465 5.54969093 5.13689641 7.98827908 5 11 C0 4.63636364 0 4.63636364 0 0 Z " fill="#F473B4" transform="translate(163,287)"/>
<path d="M0 0 C0.99 0.33 1.98 0.66 3 1 C2.67 2.65 2.34 4.3 2 6 C2.66 6.33 3.32 6.66 4 7 C2.35 7 0.7 7 -1 7 C-1.04254356 5.00045254 -1.04080783 2.99958364 -1 1 C-0.67 0.67 -0.34 0.34 0 0 Z " fill="#79B9E6" transform="translate(207,327)"/>
<path d="M0 0 C0.66 0.99 1.32 1.98 2 3 C-0.31 4.98 -2.62 6.96 -5 9 C-5 4.61031544 -2.87194899 3.23094261 0 0 Z " fill="#F689BF" transform="translate(321,302)"/>
<path d="M0 0 C1.4540625 0.0309375 1.4540625 0.0309375 2.9375 0.0625 C2.9375 1.7125 2.9375 3.3625 2.9375 5.0625 C1.6175 4.4025 0.2975 3.7425 -1.0625 3.0625 C-1.7225 3.7225 -2.3825 4.3825 -3.0625 5.0625 C-3.625 3.125 -3.625 3.125 -4.0625 1.0625 C-3.0625 0.0625 -3.0625 0.0625 0 0 Z " fill="#70B5E5" transform="translate(284.0625,328.9375)"/>
<path d="M0 0 C0.99 0 1.98 0 3 0 C3 0.99 3 1.98 3 3 C3.66 3 4.32 3 5 3 C4.34 4.32 3.68 5.64 3 7 C2.34 7 1.68 7 1 7 C1.33 5.02 1.66 3.04 2 1 C1.34 0.67 0.68 0.34 0 0 Z " fill="#B1D6F1" transform="translate(197,323)"/>
<path d="M0 0 C2.475 0.99 2.475 0.99 5 2 C5 3.32 5 4.64 5 6 C4.01 6 3.02 6 2 6 C2 4.68 2 3.36 2 2 C1.01 1.67 0.02 1.34 -1 1 C-0.67 0.67 -0.34 0.34 0 0 Z " fill="#73B6E5" transform="translate(198,320)"/>
</svg>
